# xmcd
#
# Track frame offsets:
#	150
#	17004
#	35409
#	54280
#	71538
#	75402
#	94107
#	100175
#	110648
#	145073
#	169149
#	179974
#
# Disc length: 2520 seconds
#
# Revision: 1
# Processed by: cddbd v1.5.2PL0 Copyright (c) Steve Scherf et al.
# Submitted via: audiograbber 1.83.01
#
DISCID=9b09d60c
DTITLE=Pearlene - Murder Blues and Prayer
DYEAR=2003
DGENRE=Garage Blues Rock
TTITLE0=You Done Told Everybody
TTITLE1=A Kiss On The Lips
TTITLE2=Jinx Blues
TTITLE3=Living Is...
TTITLE4=Jinx Reprise
TTITLE5=Human Being
TTITLE6=Honey Halleluja
TTITLE7=I Thought You Knew
TTITLE8=Murder Blues and Prayer
TTITLE9=One Life
TTITLE10=Mutilation Boogie
TTITLE11=Wayitgo
EXTD=
EXTT0=
EXTT1=
EXTT2=
EXTT3=
EXTT4=
EXTT5=
EXTT6=
EXTT7=
EXTT8=
EXTT9=
EXTT10=
EXTT11=
PLAYORDER=
